<svg viewBox="0 0 512 512" xmlns="http://www.w3.org/2000/svg" xmlns:xlink="http://www.w3.org/1999/xlink"><defs><path d="M146.565 0h218.87c50.964 0 69.445 5.306 88.076 15.27 18.632 9.965 33.254 24.587 43.218 43.219C506.694 77.12 512 95.6 512 146.565v218.87c0 50.964-5.306 69.445-15.27 88.076-9.965 18.632-24.587 33.254-43.219 43.218C434.88 506.694 416.4 512 365.435 512h-218.87c-50.964 0-69.445-5.306-88.076-15.27-18.632-9.965-33.254-24.587-43.218-43.219C5.306 434.88 0 416.4 0 365.435v-218.87C0 95.6 5.306 77.12 15.27 58.489c9.966-18.632 24.588-33.254 43.22-43.219C77.12 5.306 95.6 0 146.565 0Z" id="a"/><path id="d" d="M0 0h512v512H0z"/><path d="m74.817 174.888-.169-.004a10.59 10.59 0 0 1-4.57-1.2l-.153-.081-.75-.41c-24.641-13.555-42.084-31.327-52.325-53.318C5.006 94.446-.594 66.882.05 37.183a14.807 14.807 0 0 1 8.382-13.03l.153-.073 1.971-.917 1.926-.893.948-.438 1.402-.646 1.835-.843 1.794-.82 1.753-.797 1.713-.775 1.258-.567 1.642-.735 1.6-.714 1.175-.52.77-.34 1.51-.663 1.106-.483 1.439-.624 1.052-.453 1.03-.44 1.007-.429 1.307-.55 1.266-.53.923-.381.603-.248.885-.36.577-.234.568-.228.831-.331.81-.319.786-.306.511-.197.748-.285.486-.184.606-.226.916-.34.926-.341.933-.34.627-.227.629-.226.947-.337.952-.334.954-.332.637-.218.638-.217.638-.214.637-.212.637-.21.635-.206.634-.203.633-.2.63-.197.628-.193.313-.095.624-.187.62-.183.617-.178.612-.174.608-.169.486-.132.241-.065.48-.127.24-.062.475-.121.471-.118.467-.115.464-.11.23-.054.456-.104.452-.1.447-.096.222-.046.44-.089.218-.043.432-.082C71.27.234 73.093.015 74.65 0h.166c1.594 0 3.474.22 5.548.607l.432.082.218.043.44.09.221.045.447.096.226.05.454.102.46.106.462.11.468.115.471.118.475.121.479.125.24.064.484.13.243.067.608.17.613.173.617.178.62.183.624.187.313.095.627.193.63.197.633.2.635.203.635.207.637.21.637.211.638.214.637.217.638.218.954.332.952.334.947.337.63.226.625.226.934.341.926.34.916.341.605.226.486.184.749.285.511.197.786.306.81.319.831.331.567.228.578.234.885.36.603.248.923.382 1.266.528 1.307.551 1.007.428 1.03.441 1.052.453 1.439.624 1.106.483 1.51.663.77.34 1.174.52 1.601.714 1.642.735 1.258.567 1.713.775 1.753.798 1.794.82 1.834.842 1.403.646.948.438 1.925.893 1.972.917a14.806 14.806 0 0 1 8.535 13.103c.643 29.7-4.957 57.263-16.8 82.692-10.242 21.99-27.684 39.763-52.326 53.319l-.75.409a10.59 10.59 0 0 1-4.723 1.28l-.168.005Z" id="f"/><path id="j" d="M-219.638-215.13H369.69v589.258h-589.327z"/><path d="m75.183 175-.168-.004a10.59 10.59 0 0 1-4.57-1.2l-.154-.08-.749-.41C44.9 159.75 27.458 141.978 17.216 119.987 5.373 94.558-.227 66.994.416 37.295a14.807 14.807 0 0 1 8.383-13.03l.152-.073 1.972-.917 1.925-.893.948-.438 1.403-.646 1.834-.843 1.794-.82 1.753-.797 1.713-.775 1.258-.567 1.642-.735 1.601-.714 1.174-.52.77-.34 1.51-.663 1.106-.483 1.439-.624 1.052-.453 1.03-.44 1.007-.429 1.307-.55 1.266-.53.923-.381.603-.248.885-.36.578-.234.567-.228.832-.331.809-.319.786-.306.511-.197.749-.285.486-.183.605-.227.916-.34.926-.341.934-.34.626-.227.629-.226.947-.337.952-.334.954-.332.638-.218.637-.217.638-.214.637-.212.637-.21.635-.206.635-.203.632-.2.63-.197.628-.193.313-.095.624-.187.62-.182.617-.179.613-.174.608-.169.485-.132.242-.065.48-.127.239-.062.475-.121.471-.118.468-.115.463-.11.23-.054.457-.104.452-.1.447-.096.222-.046.44-.089.217-.043.432-.082c2.002-.373 3.824-.592 5.382-.607h.166c1.594 0 3.475.22 5.548.607l.432.082.218.043.44.09.222.045.447.096.225.05.455.102.458.106.464.11.467.115.471.118.475.121.48.126.24.063.483.13.244.067.608.17.612.173.617.179.62.182.624.187.313.095.628.193.63.197.633.2.634.203.635.207.637.21.637.211.638.214.638.217.637.218.954.332.952.334.947.337.63.226.626.227.933.34.926.34.916.341.606.227.486.183.748.285.511.197.787.306.809.319.831.331.568.228.577.234.885.36.603.248.923.382 1.266.528 1.307.551 1.007.428 1.03.441 1.052.453 1.44.624 1.105.483 1.51.663.77.34 1.174.52 1.601.714 1.642.735 1.258.567 1.713.775 1.753.798 1.794.82 1.835.842 1.402.646.948.438 1.926.893 1.971.917a14.806 14.806 0 0 1 8.535 13.103c.644 29.7-4.956 57.263-16.8 82.692-10.241 21.99-27.684 39.763-52.326 53.319l-.749.41a10.59 10.59 0 0 1-4.723 1.28l-.169.004Z" id="l"/><filter x="-.4%" y="-.4%" width="100.8%" height="100.8%" filterUnits="objectBoundingBox" id="e"><feGaussianBlur stdDeviation="1.5" in="SourceAlpha" result="shadowBlurInner1"/><feOffset dy="1" in="shadowBlurInner1" result="shadowOffsetInner1"/><feComposite in="shadowOffsetInner1" in2="SourceAlpha" operator="arithmetic" k2="-1" k3="1" result="shadowInnerInner1"/><feColorMatrix values="0 0 0 0 1 0 0 0 0 1 0 0 0 0 1 0 0 0 0.5 0" in="shadowInnerInner1"/></filter><filter x="-1.3%" y="-1.1%" width="102.7%" height="102.3%" filterUnits="objectBoundingBox" id="g"><feGaussianBlur stdDeviation="1.5" in="SourceAlpha" result="shadowBlurInner1"/><feOffset dy="1" in="shadowBlurInner1" result="shadowOffsetInner1"/><feComposite in="shadowOffsetInner1" in2="SourceAlpha" operator="arithmetic" k2="-1" k3="1" result="shadowInnerInner1"/><feColorMatrix values="0 0 0 0 1 0 0 0 0 1 0 0 0 0 1 0 0 0 0.5 0" in="shadowInnerInner1"/></filter><filter x="-.3%" y="-.3%" width="100.7%" height="100.7%" filterUnits="objectBoundingBox" id="k"><feGaussianBlur stdDeviation="1.5" in="SourceAlpha" result="shadowBlurInner1"/><feOffset dy="1" in="shadowBlurInner1" result="shadowOffsetInner1"/><feComposite in="shadowOffsetInner1" in2="SourceAlpha" operator="arithmetic" k2="-1" k3="1" result="shadowInnerInner1"/><feColorMatrix values="0 0 0 0 1 0 0 0 0 1 0 0 0 0 1 0 0 0 0.5 0" in="shadowInnerInner1"/></filter><filter x="-1.3%" y="-1.1%" width="102.7%" height="102.3%" filterUnits="objectBoundingBox" id="m"><feGaussianBlur stdDeviation="1.5" in="SourceAlpha" result="shadowBlurInner1"/><feOffset dy="1" in="shadowBlurInner1" result="shadowOffsetInner1"/><feComposite in="shadowOffsetInner1" in2="SourceAlpha" operator="arithmetic" k2="-1" k3="1" result="shadowInnerInner1"/><feColorMatrix values="0 0 0 0 0.386615256 0 0 0 0 0.386615256 0 0 0 0 0.386615256 0 0 0 0.25 0" in="shadowInnerInner1"/></filter><linearGradient x1="100%" y1="0%" x2="0%" y2="100%" id="c"><stop stop-color="#00E2FD" offset="0%"/><stop stop-color="#821EFF" offset="100%"/></linearGradient><linearGradient x1="100%" y1=".012%" x2="0%" y2="99.988%" id="i"><stop stop-color="#00E2FD" offset="0%"/><stop stop-color="#821EFF" offset="100%"/></linearGradient></defs><g fill="none" fill-rule="evenodd"><mask id="b" fill="#fff"><use xlink:href="#a"/></mask><g mask="url(#b)"><use fill="url(#c)" xlink:href="#d"/><use fill="#000" filter="url(#e)" xlink:href="#d"/><g fill="#FFF" opacity=".259"><path d="M150 439.597c55.456 32.018 165.181-20.102 221.181-117.097 56-96.995 46.275-218.08-9.181-250.097C306.544 40.385 196.819 92.505 140.819 189.5c-56 96.995-46.275 218.08 9.181 250.097Z"/><path d="M150 72.403C94.544 104.42 84.819 225.505 140.819 322.5S306.544 471.615 362 439.597c55.456-32.017 65.181-153.102 9.181-250.097S205.456 40.385 150 72.403Z"/><path d="M468 256c0-64.035-100-133-212-133S44 191.965 44 256s100 133 212 133 212-68.965 212-133Z"/></g><g fill="#FFF" opacity=".259"><path d="M256 123c57.98 0 112.745 18.482 152.085 45.195 3.463 47.424-7.913 104.092-36.904 154.305-12.355 21.4-27.325 40.614-43.75 57.224C304.835 385.644 280.71 389 256 389c-57.98 0-112.744-18.482-152.083-45.194-3.465-47.425 7.911-104.093 36.902-154.306 12.355-21.4 27.325-40.614 43.75-57.224C207.165 126.356 231.29 123 256 123Z"/><path d="M256 123c24.71 0 48.835 3.357 71.431 9.277 16.425 16.609 31.395 35.824 43.75 57.223 28.99 50.213 40.367 106.881 36.903 154.307C368.744 370.518 313.98 389 256 389c-24.71 0-48.835-3.357-71.431-9.277-16.425-16.609-31.395-35.824-43.75-57.223-28.99-50.213-40.367-106.881-36.903-154.307C143.256 141.482 198.02 123 256 123Z"/><path d="M256 80.389c42.804 20.713 86.191 58.899 115.181 109.111 12.355 21.4 21.511 43.971 27.682 66.5-6.171 22.53-15.327 45.101-27.682 66.5-28.99 50.212-72.377 88.398-115.18 109.111-42.804-20.712-86.192-58.898-115.182-109.111-12.355-21.399-21.51-43.97-27.682-66.5 6.17-22.529 15.327-45.1 27.682-66.5 28.56-49.467 71.093-87.263 113.276-108.178Z"/></g><path d="m306 109.256 52.085 30.072a100 100 0 0 1 50 86.602v60.141a100 100 0 0 1-50 86.603L306 402.744a100 100 0 0 1-100 0l-52.084-30.07a100 100 0 0 1-50-86.603V225.93a100 100 0 0 1 50-86.602L206 109.256a100 100 0 0 1 100 0Z" fill="#FFF"/><g transform="translate(181 175)"><mask id="h" fill="#fff"><use xlink:href="#f"/></mask><use filter="url(#g)" xlink:href="#f" fill="#000"/><g mask="url(#h)"><use fill="url(#i)" xlink:href="#j"/><use fill="#000" filter="url(#k)" xlink:href="#j"/></g><mask id="n" fill="#fff"><use xlink:href="#l"/></mask><use filter="url(#m)" xlink:href="#l" fill="#000"/><path d="M98.08 34.668c2.254-.002 4.117 1.766 4.249 4.035l2.686 46.192.555 7.692c.512 7.096-4.78 13.279-11.822 13.81a12.68 12.68 0 0 1-1.94-.003l-30.077-2.35c-2.046-.16-3.623-1.88-3.62-3.95l.005-5.41a3.965 3.965 0 0 1 3.31-3.918l22.587-3.696a3.301 3.301 0 0 0 2.76-3.044l2.934-45.33c.147-2.26 2.01-4.022 4.256-4.024l4.117-.004Z" fill="#FFF" mask="url(#n)" transform="rotate(45 81.857 70.55)"/></g></g></g></svg>